HIERARCHY
ROOT SpineBase
{
  OFFSET 0.000000 0.000000 0.000000
  CHANNELS 6 Xposition Yposition Zposition Zrotation Xrotation Yrotation
  JOINT SpineMid
  {
    OFFSET 0.000000 33.500464 0.000000
    CHANNELS 3 Zrotation Xrotation Yrotation
    JOINT SpineShoulder
    {
      OFFSET 0.002234 24.839394 -0.752114
      CHANNELS 3 Zrotation Xrotation Yrotation
      JOINT Neck
      {
        OFFSET -0.024170 8.191945 -0.606492
        CHANNELS 3 Zrotation Xrotation Yrotation
        JOINT Head
        {
          OFFSET 4.977910 10.965731 5.419179
          CHANNELS 3 Zrotation Xrotation Yrotation
          End Site
          {
            OFFSET 0 0 0
          }
        }
      }
      JOINT ShoulderLeft
      {
        OFFSET -7.602278 -4.777176 -14.717896
        CHANNELS 3 Zrotation Xrotation Yrotation
        JOINT ElbowLeft
        {
          OFFSET -2.253484 -26.484094 -8.112966
          CHANNELS 3 Zrotation Xrotation Yrotation
          JOINT WristLeft
          {
            OFFSET 5.770904 -21.701277 -0.166829
            CHANNELS 3 Zrotation Xrotation Yrotation
            JOINT HandLeft
            {
              OFFSET 0.994650 -6.851148 0.983879
              CHANNELS 3 Zrotation Xrotation Yrotation
              JOINT HandTipLeft
              {
                OFFSET 2.193753 -6.984070 0.876403
                CHANNELS 3 Zrotation Xrotation Yrotation
                End Site
                {
                  OFFSET 0 0 0
                }
              }
              JOINT ThumbLeft
              {
                OFFSET 3.686696 0.597536 -0.644733
                CHANNELS 3 Zrotation Xrotation Yrotation
                End Site
                {
                  OFFSET 0 0 0
                }
              }
            }
          }
        }
      }
      JOINT ShoulderRight
      {
        OFFSET -2.900680 3.335315 -11.806647
        CHANNELS 3 Zrotation Xrotation Yrotation
        JOINT ElbowRight
        {
          OFFSET -7.508334 -20.188242 -20.157060
          CHANNELS 3 Zrotation Xrotation Yrotation
          JOINT WristRight
          {
            OFFSET -10.708175 -18.936011 -3.008170
            CHANNELS 3 Zrotation Xrotation Yrotation
            JOINT HandRight
            {
              OFFSET 0.034375 -1.599669 2.644232
              CHANNELS 3 Zrotation Xrotation Yrotation
              JOINT HandTipRight
              {
                OFFSET 0.253383 -0.520654 -1.294161
                CHANNELS 3 Zrotation Xrotation Yrotation
                End Site
                {
                  OFFSET 0 0 0
                }
              }
              JOINT ThumbRight
              {
                OFFSET 0.263549 -0.272755 -3.250503
                CHANNELS 3 Zrotation Xrotation Yrotation
                End Site
                {
                  OFFSET 0 0 0
                }
              }
            }
          }
        }
      }
    }
  }
  JOINT HipLeft
  {
    OFFSET -2.737204 0.679995 -7.426525
    CHANNELS 3 Zrotation Xrotation Yrotation
    JOINT KneeLeft
    {
      OFFSET -9.991995 -33.325985 -6.693740
      CHANNELS 3 Zrotation Xrotation Yrotation
      JOINT AnkleLeft
      {
        OFFSET -7.069732 -35.785418 7.244088
        CHANNELS 3 Zrotation Xrotation Yrotation
        JOINT FootLeft
        {
          OFFSET 4.072817 -7.603267 0.219804
          CHANNELS 3 Zrotation Xrotation Yrotation
          End Site
          {
            OFFSET 0 0 0
          }
        }
      }
    }
  }
  JOINT HipRight
  {
    OFFSET 2.449969 0.786522 -0.648445
    CHANNELS 3 Zrotation Xrotation Yrotation
    JOINT KneeRight
    {
      OFFSET -1.767661 -37.137963 1.465414
      CHANNELS 3 Zrotation Xrotation Yrotation
      JOINT AnkleRight
      {
        OFFSET -11.358390 -31.998848 1.739894
        CHANNELS 3 Zrotation Xrotation Yrotation
        JOINT FootRight
        {
          OFFSET 2.013419 -8.690715 -4.654555
          CHANNELS 3 Zrotation Xrotation Yrotation
          End Site
          {
            OFFSET 0 0 0
          }
        }
      }
    }
  }
}
MOTION
Frames: 13
Frame Time: 0.033333
24.107846 79.649321 372.271063 -0.000000 0.000000 -52.573659 0.000000 0.000000 52.573659 -0.000000 0.000000 0.000000 -0.000000 0.000000 0.000000 0.000000 0.000000 0.000000 -0.000000 0.000000 0.000000 -0.000000 0.000000 0.000000 -0.000000 0.000000 0.000000 -0.000000 0.000000 0.000000 0.000000 0.000000 0.000000 0.000000 0.000000 0.000000 -0.000000 0.000000 0.000000 -0.000000 0.000000 0.000000 -0.000000 0.000000 0.000000 -0.000000 0.000000 0.000000 0.000000 0.000000 0.000000 0.000000 0.000000 0.000000 0.000000 0.000000 52.573659 -0.000000 0.000000 0.000000 -0.000000 0.000000 0.000000 0.000000 0.000000 0.000000 0.000000 0.000000 52.573659 -0.000000 0.000000 0.000000 -0.000000 0.000000 0.000000 0.000000 0.000000 0.000000
24.244226 79.552906 372.314632 -0.139817 0.255563 -53.980925 0.288925 -0.037197 53.981331 -0.000000 0.000000 0.000000 -0.891997 0.493408 0.219441 0.000000 0.000000 0.000000 -0.000000 0.000000 0.000000 0.007242 0.818168 0.217452 -0.010348 -0.818135 -0.217577 -0.000000 0.000000 0.000000 0.000000 0.000000 0.000000 0.000000 0.000000 0.000000 -0.000000 0.000000 0.000000 -0.000000 0.000000 0.000000 -6.782222 19.515561 -13.420996 11.534530 -15.746358 16.126378 0.000000 0.000000 0.000000 0.000000 0.000000 0.000000 0.438957 1.176000 53.586800 -2.121678 -0.802044 0.199504 0.801200 4.674883 2.581467 0.000000 0.000000 0.000000 1.927022 0.805774 54.074770 -2.379995 2.116021 -0.568274 -0.976242 -0.223651 1.645219 0.000000 0.000000 0.000000
24.350580 79.473432 372.301910 -0.286168 0.481199 -55.276841 0.558507 -0.038886 55.278232 -0.000000 0.000000 0.000000 -1.711244 0.883373 0.453122 0.000000 0.000000 0.000000 -0.968211 -0.281890 0.318216 0.984722 1.769019 0.073642 -0.156885 -0.083239 -0.215681 -0.692533 -0.616289 -0.053276 0.000000 0.000000 0.000000 0.000000 0.000000 0.000000 -0.000000 0.000000 0.000000 -0.000000 0.000000 0.000000 -8.910328 33.301842 -22.241829 22.169741 -23.993263 29.680759 0.000000 0.000000 0.000000 0.000000 0.000000 0.000000 0.824446 2.218212 54.547642 -3.857801 -1.349155 0.336332 0.916987 8.916295 5.060586 0.000000 0.000000 0.000000 3.586836 1.594889 55.432488 -4.231868 3.769548 -0.941566 -1.556685 -0.406651 2.683124 0.000000 0.000000 0.000000
24.426909 79.410897 372.232898 -0.439175 0.677197 -56.449119 0.807090 -0.008249 56.451772 -0.690071 0.600634 -0.045719 -1.769735 0.569966 0.725753 0.000000 0.000000 0.000000 -0.708795 -0.970576 0.493931 1.418471 2.402845 0.078802 -0.122694 -0.113663 -0.282688 -0.928589 -0.755037 -0.048637 0.000000 0.000000 0.000000 0.000000 0.000000 0.000000 0.690587 -0.600040 0.052953 -0.000000 0.000000 0.000000 -9.086884 39.870988 -26.729397 28.005729 -26.897821 36.898605 0.000000 0.000000 0.000000 0.000000 0.000000 0.000000 1.169960 3.117521 55.446042 -5.211574 -1.631058 0.427326 0.392744 12.655673 7.454011 0.000000 0.000000 0.000000 4.934081 2.305272 56.638231 -5.558307 5.003208 -1.177940 -1.686706 -0.576568 3.173896 0.000000 0.000000 0.000000
24.473213 79.365302 372.107594 -0.598976 0.843794 -57.487942 0.100465 -0.186822 57.469452 -0.176125 0.052345 -0.042258 -2.260281 0.647186 0.983387 0.000000 0.000000 0.000000 -0.912294 -1.131218 0.624167 1.808593 2.890988 0.071075 -0.011599 -0.188732 -0.330658 -1.104412 -0.746529 -0.014277 0.000000 0.000000 0.000000 0.000000 0.000000 0.000000 0.879431 -0.710090 0.068432 -0.000000 0.000000 0.000000 -9.055204 40.880244 -27.454627 28.942423 -27.276557 38.048715 0.000000 0.000000 0.000000 0.000000 0.000000 0.000000 1.488672 3.866668 56.273433 -6.184024 -1.639240 0.484617 -0.722254 15.849589 9.764013 0.000000 0.000000 0.000000 5.933723 2.879014 57.689247 -6.342909 5.838085 -1.315602 -1.332639 -0.759793 3.152316 0.000000 0.000000 0.000000
24.489491 79.336647 371.925999 -0.765719 0.981171 -58.386245 0.160128 -0.206351 58.364635 -0.188895 0.039690 -0.050035 -2.703675 0.670429 1.249106 0.000000 0.000000 0.000000 -1.095283 -1.208175 0.738075 2.151835 3.243813 0.054675 0.172857 -0.330626 -0.363716 -1.220740 -0.575551 0.054448 0.000000 0.000000 0.000000 0.000000 0.000000 0.000000 1.047435 -0.775017 0.082303 -0.000000 0.000000 0.000000 -9.079773 36.693983 -24.515247 25.125710 -25.581985 33.343291 0.000000 0.000000 0.000000 0.000000 0.000000 0.000000 1.792787 4.459987 57.023336 -6.773904 -1.366213 0.515321 -2.375337 18.476428 11.978211 0.000000 0.000000 0.000000 6.562927 3.267534 58.586497 -6.563594 6.282883 -1.377826 -0.471042 -0.989149 2.632509 0.000000 0.000000 0.000000
24.429805 79.319087 371.602975 -0.972049 1.219863 -58.621141 0.225627 -0.204148 58.597509 -0.197824 0.025032 -0.058160 -3.261789 0.320532 1.678308 0.000000 0.000000 0.000000 -1.152271 -1.318596 0.811509 2.332136 3.562486 0.092166 1.062868 -0.831812 -0.329639 -1.770039 0.778367 0.377704 0.000000 0.000000 0.000000 0.000000 0.000000 0.000000 1.228158 -0.944156 0.098201 -0.000000 0.000000 0.000000 -9.095986 33.433026 -22.789461 23.287231 -24.696620 30.005832 0.000000 0.000000 0.000000 0.000000 0.000000 0.000000 2.679064 5.048207 57.143317 -7.458931 -0.281178 0.477139 -6.376915 22.218887 15.854122 0.000000 0.000000 0.000000 7.251549 3.213431 58.835412 -6.173878 6.857548 -1.448662 2.525939 -2.278039 0.710742 0.000000 0.000000 0.000000
24.380397 79.332416 371.289467 -1.162283 1.366690 -59.349975 0.360591 -0.213857 59.324966 -0.188004 -0.023380 -0.063854 -3.370670 0.168770 1.870783 0.000000 0.000000 0.000000 -1.320047 -1.159198 0.897040 2.631154 3.541399 0.050287 1.171378 -0.847999 -0.325139 0.018561 0.638941 0.601401 0.000000 0.000000 0.000000 0.000000 0.000000 0.000000 1.352046 -0.921857 0.108193 -0.000000 0.000000 0.000000 -0.000000 0.000000 0.000000 -0.000000 0.000000 0.000000 0.000000 0.000000 0.000000 0.000000 0.000000 0.000000 3.112795 5.276440 57.866752 -7.192330 0.871521 0.422657 -9.396177 24.097164 18.372454 0.000000 0.000000 0.000000 6.833292 2.853241 59.553868 -4.608415 6.364857 -1.381487 5.291746 -3.387547 -1.418773 0.000000 0.000000 0.000000
24.323910 79.362546 370.992615 -1.334766 1.343916 -60.042894 0.506332 -0.224433 60.015083 -0.161832 -0.082618 -0.067868 -3.691290 0.330603 2.106958 0.000000 0.000000 0.000000 -1.544278 -0.653115 0.984778 2.768775 3.212876 -0.013862 1.204907 -1.256421 -0.398697 -0.032662 1.096910 0.664010 0.000000 0.000000 0.000000 0.000000 0.000000 0.000000 1.439556 -0.708000 0.113333 -0.000000 0.000000 0.000000 3.850495 -6.424039 5.888979 -3.194983 6.772892 -5.483704 0.000000 0.000000 0.000000 0.000000 0.000000 0.000000 3.079352 5.286421 58.617344 -6.167368 1.772890 0.400823 -12.189633 24.833968 19.812654 0.000000 0.000000 0.000000 6.118523 2.705557 60.215977 -3.056808 5.304405 -1.165647 7.606291 -4.136225 -3.490818 0.000000 0.000000 0.000000
24.283220 79.418093 370.714573 -1.498310 1.149026 -60.332644 0.579329 -0.230023 60.298839 -0.128777 -0.120860 -0.072292 -3.623136 0.679993 2.133717 0.000000 0.000000 0.000000 -1.556787 -0.462142 1.046072 2.865498 3.368450 -0.046058 1.075129 -1.560847 -0.473602 0.317861 0.633768 0.530353 0.000000 0.000000 0.000000 0.000000 0.000000 0.000000 1.541099 -0.407971 0.118350 -0.000000 0.000000 0.000000 11.788723 -16.041998 16.780419 -9.348676 16.710011 -10.145532 0.000000 0.000000 0.000000 0.000000 0.000000 0.000000 2.662802 5.118717 59.009599 -4.695523 2.392874 0.383593 -13.703048 23.997085 19.555138 0.000000 0.000000 0.000000 5.074954 2.474674 60.464977 -1.306366 3.795379 -0.787213 8.682689 -3.377378 -4.974192 0.000000 0.000000 0.000000
24.225892 79.392609 370.453643 -1.620402 0.746466 -60.988094 0.596371 -0.206433 60.945853 -0.082805 -0.144064 -0.074431 -4.301401 1.440656 2.391247 0.000000 0.000000 0.000000 -1.707886 -0.177893 1.139858 2.954375 3.260641 -0.186507 0.699759 -1.840310 -0.575681 0.725675 -0.281969 0.225255 0.000000 0.000000 0.000000 0.000000 0.000000 0.000000 1.594575 0.022479 0.117813 -0.000000 0.000000 0.000000 19.656425 -24.119334 26.442165 -10.869122 29.095276 -15.032457 0.000000 0.000000 0.000000 0.000000 0.000000 0.000000 1.686666 4.923869 59.763044 -2.978507 2.356332 0.458439 -14.324731 21.553304 17.578075 0.000000 0.000000 0.000000 4.020937 2.489115 61.078822 -0.056118 2.657421 -0.488418 9.673018 -4.867094 -6.456753 0.000000 0.000000 0.000000
24.171308 79.299453 370.135648 -1.684608 0.310875 -61.944857 0.614310 -0.175975 61.894613 -0.030307 -0.171722 -0.073842 -4.865811 2.186728 2.590835 0.000000 0.000000 0.000000 -1.954504 0.102930 1.243845 3.039304 2.959166 -0.402007 0.116608 -1.614262 -0.620871 1.021407 -0.503343 0.163034 0.000000 0.000000 0.000000 0.000000 0.000000 0.000000 1.580440 0.488980 0.111744 -0.000000 0.000000 0.000000 27.773820 -28.735594 36.164833 -11.329688 39.324769 -19.242902 0.000000 0.000000 0.000000 0.000000 0.000000 0.000000 0.346268 4.485571 60.846934 -1.149357 1.779936 0.574542 -13.915965 19.295041 15.391570 0.000000 0.000000 0.000000 3.082453 2.557967 62.005565 0.939974 1.431645 -0.104446 8.872506 -5.089238 -7.001737 0.000000 0.000000 0.000000
24.122783 79.159123 369.827380 -1.707334 -0.092511 -62.962709 0.623166 -0.154773 62.905516 -0.003231 -0.178675 -0.073670 -5.234178 2.717882 2.757469 0.000000 0.000000 0.000000 -2.189002 0.275185 1.346012 3.070425 2.587411 -0.652191 -0.418173 -1.158127 -0.604599 1.145995 -0.872237 0.046551 0.000000 0.000000 0.000000 0.000000 0.000000 0.000000 1.563467 0.899833 0.106193 -0.000000 0.000000 0.000000 30.489379 -29.880379 39.358127 -10.640688 43.854585 -19.898087 0.000000 0.000000 0.000000 0.000000 0.000000 0.000000 -1.182924 3.868125 61.986101 0.730974 0.823685 0.753281 -13.486215 18.535905 14.222651 0.000000 0.000000 0.000000 2.438816 2.665308 63.007617 1.523402 0.420710 0.259473 8.388123 -4.512011 -7.460201 0.000000 0.000000 0.000000
